/* XPM */
static char *result[] = {
/* columns rows colors chars-per-pixel */
"64 64 2 1 ",
"  c #285238",
". c #72A276",
/* pixels */
"................................................................",
"................................................................",
"................................................................",
"................................................................",
"....................                        ....................",
"....................                        ....................",
"....................                        ....................",
"....................                        ....................",
"................                                ................",
"................                                ................",
"................                                ................",
"................                                ................",
"........................                ........................",
"........................                ........................",
"........................                ........................",
"........................                ........................",
"........................                ........................",
"........................                ........................",
"........................                ........................",
"........................                ........................",
"........................                ........................",
"........................                ........................",
"........................                ........................",
"........................                ........................",
"............................        ............................",
"............................        ............................",
"............................        ............................",
"............................        ............................",
"................                                ................",
"................                                ................",
"................                                ................",
"................                                ................",
"............                                        ............",
"............                                        ............",
"............                                        ............",
"............                                        ............",
"........                                                ........",
"........                                                ........",
"........                                                ........",
"........                                                ........",
"........                                                ........",
"........                                                ........",
"........                                                ........",
"........                                                ........",
"........        ....                        ....        ........",
"........        ....                        ....        ........",
"........        ....                        ....        ........",
"........        ....                        ....        ........",
"........        ....                        ....        ........",
"........        ....                        ....        ........",
"........        ....                        ....        ........",
"........        ....                        ....        ........",
"....................    ................    ....................",
"....................    ................    ....................",
"....................    ................    ....................",
"....................    ................    ....................",
"....................    ................    ....................",
"....................    ................    ....................",
"....................    ................    ....................",
"....................    ................    ....................",
"................................................................",
"................................................................",
"................................................................",
"................................................................"
};
